<?xml version="1.0" encoding="UTF-8"?>
<svg id="a" data-name="Layer 1" xmlns="http://www.w3.org/2000/svg" viewBox="0 0 252.516 235.098">
  <path d="M165.218,0s36.521-.353,27.718,35.911c-7.493,30.869-48.057,29.376-48.057,29.376l-22.544,56.163,14.257.007,19.855-49.375,53.178.126s53.346-.319,41.051,59.82c-13.063,63.901-88.286,58.876-88.286,58.876h-53.228l15.823-40.678h-14.291s-3.375,9.535-15.769,40.678c-31.176,78.341-107.936,38.41-93.026-11.308,11.318-36.446,35.14-53.143,59.631-56.62,24.577-3.488,28.468-1.525,36.197-20.949,7.73-19.424,28.97-72.782,28.97-72.782l-23.722-.028L114.603,0h50.615ZM159.26,29.24l-2.662,6.677s5.074,1.176,6.706-3.292c1.577-4.316-4.045-3.385-4.045-3.385M177.037,102.1l-7.71,19.35h20.702l-11.442,28.774h-20.712l-4.731,11.885h20.704s35.6-.239,44.84-30.065c9.679-31.24-20.898-30.099-20.898-30.099l-20.754.155ZM33.338,177.7c-12.734,32.458,20.435,34.339,28.967,13.166,8.532-21.173,15.723-40.526,15.723-40.526,0,0-32.95-2.568-44.69,27.359" fill="currentColor"/>
</svg>
